<svg xmlns="http://www.w3.org/2000/svg" viewBox="0 0 720 480" role="img" aria-labelledby="title desc">
  <title id="title">Git Quality Commit</title>
  <desc id="desc">Commit flow logo with branch nodes and validation mark.</desc>
  <defs>
    <linearGradient id="bg" x1="0" y1="0" x2="1" y2="1">
      <stop offset="0" stop-color="#112018"/>
      <stop offset="1" stop-color="#0f172a"/>
    </linearGradient>
    <linearGradient id="accent" x1="0" y1="0" x2="1" y2="1">
      <stop offset="0" stop-color="#4ade80"/>
      <stop offset="1" stop-color="#22c55e"/>
    </linearGradient>
  </defs>
  <rect width="720" height="480" rx="48" fill="url(#bg)"/>
  <rect x="54" y="54" width="612" height="372" rx="34" fill="#0b1220" stroke="#22303d" stroke-width="4"/>
  <path d="M190 320c0-64 38-112 94-112h50c64 0 110-30 160-90" fill="none" stroke="#475569" stroke-width="18" stroke-linecap="round"/>
  <circle cx="190" cy="320" r="24" fill="#22c55e"/>
  <circle cx="284" cy="208" r="18" fill="#4ade80"/>
  <circle cx="358" cy="208" r="18" fill="#86efac"/>
  <circle cx="496" cy="144" r="18" fill="#bbf7d0"/>
  <rect x="432" y="250" width="144" height="92" rx="24" fill="#0f172a" stroke="url(#accent)" stroke-width="4"/>
  <path d="M462 296l22 22 42-50" fill="none" stroke="#4ade80" stroke-width="14" stroke-linecap="round" stroke-linejoin="round"/>
  <path d="M246 140h128" stroke="#a7f3d0" stroke-width="12" stroke-linecap="round"/>
  <path d="M246 170h84" stroke="#86efac" stroke-width="12" stroke-linecap="round"/>
</svg>